# xmcd
#
# Track frame offsets: 
#        150
#        29943
#        57259
#        72365
#        85803
#        98590
#        106305
#        131167
#        140728
#        157313
#        169244
#        197925
#        207968
#        219000
#        224879
#        238962
#        257816
#        277766
#        306135
#
# Disc length: 4264 seconds
#
# Revision: 0
# Processed by: cddbd v1.5.2PL0 Copyright (c) Steve Scherf et al.
# Submitted via: ExactAudioCopy v0.99pb4
#
DISCID=3210a613
DTITLE=V - The Pieces Of Venus Mixed By Hiroko Otsuka
DYEAR=2013
DGENRE=Jazz
TTITLE0=The Moffett Family Jazz Band - Magic Of Love
TTITLE1=Roma Trio - Amarsi Un Po'
TTITLE2=Joe Beck Trio - Dindi
TTITLE3=Romantic Jazz Trio - Bemsha Swing
TTITLE4=Eric Alexander Quartet - Midnight Sun
TTITLE5=Stefano Bollani Trio - Boccuccia Di Rosa
TTITLE6=Brandon Fields - Too Shy To Say
TTITLE7=The Moffett Family Jazz Band - Last Run
TTITLE8=Dewey Redman - African Venus
TTITLE9=Andrew Cyrille Quintet - Dakar Darkness
TTITLE10=Green, Grant Jr. - Jungle Strut
TTITLE11=Paul Bley Trio - Decompose
TTITLE12=Eddie Harris - Freedom Jazz Dance
TTITLE13=Stefano Bollani Trio - Puttin'On The Ritz
TTITLE14=Walter Bishop - Keiko's Samba
TTITLE15=Phil Woods Quintet - Peer Pressure
TTITLE16=David Hazeltine Trio - In Between The Heartaches
TTITLE17=Pharoah Sanders Quartet - Light At The Edge Of The World
TTITLE18=The Moffett Family Jazz Band - The Gift Is Love
EXTD=
EXTT0=
EXTT1=
EXTT2=
EXTT3=
EXTT4=
EXTT5=
EXTT6=
EXTT7=
EXTT8=
EXTT9=
EXTT10=
EXTT11=
EXTT12=
EXTT13=
EXTT14=
EXTT15=
EXTT16=
EXTT17=
EXTT18=
PLAYORDER=
